<svg width="566" height="581" viewBox="0 0 566 581" fill="none" xmlns="http://www.w3.org/2000/svg">
<g clip-path="url(#clip0_204_7226)">
<path d="M465.368 408.618L434.37 390.506V220.065L300.797 143.464V186.555L396.991 241.718V368.669L366.826 351.042L289.084 216.392V100H277.307V136.749L132.021 220.065V389.909L100 408.618L105.941 418.789L206.189 360.216H359.18L387.909 377.004L425.124 398.755H425.13L459.434 418.796L465.375 408.625L465.368 408.618ZM283.196 229.744L351.724 348.432H214.674L283.202 229.744H283.196ZM169.4 241.718L277.307 179.84V216.386L200.083 350.137L169.4 368.065V241.718Z" fill="#EAA4A4"/>
<path d="M283.195 437.054L189.439 383.281L152.218 405.033L283.195 480.138L413.332 405.512L376.117 383.767L283.195 437.054Z" fill="#EAA4A4"/>
</g>
<defs>
<clipPath id="clip0_204_7226">
<rect width="365.368" height="380.136" fill="white" transform="translate(100 100)"/>
</clipPath>
</defs>
</svg>
