<svg width="1220" height="403" viewBox="0 0 1220 403" fill="none" xmlns="http://www.w3.org/2000/svg">
<g clip-path="url(#clip0_204_7096)">
<path d="M294.514 264.302L278.011 254.659V163.92L206.9 123.139V146.08L258.112 175.448V243.033L242.052 233.649L200.664 161.965V100H194.394V119.565L117.047 163.92V254.341L100 264.302L103.163 269.716L156.533 238.533H237.982L253.276 247.471L273.089 259.051H273.092L291.355 269.72L294.518 264.305L294.514 264.302ZM197.529 169.073L234.012 232.26H161.05L197.533 169.073H197.529ZM136.947 175.448L194.394 142.505V161.961L153.282 233.167L136.947 242.712V175.448Z" fill="#EAA4A4"/>
<path d="M197.532 279.444L147.619 250.816L127.803 262.397L197.532 302.381L266.814 262.651L247.002 251.075L197.532 279.444Z" fill="#EAA4A4"/>
</g>
<path d="M1085.03 233.523V182.504H1119.32V188.69H1092.21V204.195H1112.45V210.381H1092.21V227.337H1119.62V233.523H1085.03Z" fill="#EAA4A4"/>
<path d="M1052.53 234.44C1037.94 234.44 1029.38 223.442 1029.38 207.938C1029.38 192.051 1038.7 181.588 1053.14 181.588C1061.69 181.588 1068.95 185.712 1072.46 193.121L1066.2 195.412C1063.91 190.829 1059.4 187.622 1052.76 187.622C1043.74 187.622 1036.72 194.648 1036.72 207.938C1036.72 220.769 1043.44 228.407 1052.98 228.407C1059.63 228.407 1064.14 225.275 1066.5 220.616L1072.77 222.908C1069.1 230.469 1061.54 234.44 1052.53 234.44Z" fill="#EAA4A4"/>
<path d="M975.205 233.523V182.504H985.821L1009.04 225.886V182.504H1016.22V233.523H1005.68L982.384 189.912V233.523H975.205Z" fill="#EAA4A4"/>
<path d="M918.383 233.523L937.553 182.504H945.573L964.667 233.523H957.029L953.058 222.372H929.992L926.02 233.523H918.383ZM932.131 216.186H950.919L941.525 189.76L932.131 216.186Z" fill="#EAA4A4"/>
<path d="M888.092 233.523V228.177H895.271V187.85H888.092V182.504H909.63V187.85H902.451V228.177H909.63V233.523H888.092Z" fill="#EAA4A4"/>
<path d="M844.708 233.523V182.504H851.887V227.337H879.307V233.523H844.708Z" fill="#EAA4A4"/>
<path d="M799.568 233.523V182.504H806.748V227.337H834.167V233.523H799.568Z" fill="#EAA4A4"/>
<path d="M742.746 233.523L761.917 182.504H769.936L789.03 233.523H781.393L777.421 222.372H754.355L750.384 233.523H742.746ZM756.494 216.186H775.283L765.888 189.76L756.494 216.186Z" fill="#EAA4A4"/>
<path d="M672.727 233.523V182.504H691.592C702.513 182.504 710.227 187.163 710.227 197.474C710.227 206.257 704.499 210.763 696.021 211.909L711.679 233.523H702.972L687.926 212.367H679.906V233.523H672.727ZM691.744 206.181C698.16 206.181 702.895 203.889 702.895 197.474C702.895 190.982 698.16 188.69 691.744 188.69H679.906V206.181H691.744Z" fill="#EAA4A4"/>
<path d="M625.424 233.523V182.504H659.717V188.69H632.603V204.195H652.843V210.381H632.603V227.337H660.022V233.523H625.424Z" fill="#EAA4A4"/>
<path d="M574.765 233.523V182.504H594.546C605.086 182.504 611.044 188.079 611.044 195.717C611.044 200.071 609.134 204.424 604.246 206.715C610.967 209.236 613.182 213.971 613.182 218.783C613.182 227.108 606.614 233.523 595.768 233.523H574.765ZM595.539 227.49C602.871 227.49 605.926 223.289 605.926 218.63C605.926 213.971 602.795 209.999 595.539 209.999H581.944V227.49H595.539ZM595.081 204.348C601.267 204.348 603.864 200.987 603.864 196.481C603.864 191.593 600.58 188.538 594.317 188.538H581.944V204.348H595.081Z" fill="#EAA4A4"/>
<path d="M539.464 233.523V213.742L521.058 182.504H528.924L543.054 207.174L557.107 182.504H564.974L546.644 213.742V233.523H539.464Z" fill="#EAA4A4"/>
<path d="M494.514 234.44C479.926 234.44 471.372 223.442 471.372 207.938C471.372 192.051 480.69 181.588 495.125 181.588C503.679 181.588 510.935 185.712 514.448 193.121L508.186 195.412C505.894 190.829 501.388 187.622 494.743 187.622C485.731 187.622 478.704 194.648 478.704 207.938C478.704 220.769 485.425 228.407 494.972 228.407C501.617 228.407 506.123 225.275 508.491 220.616L514.754 222.908C511.088 230.469 503.527 234.44 494.514 234.44Z" fill="#EAA4A4"/>
<path d="M413.259 233.523V228.177H420.438V187.85H413.259V182.504H434.797V187.85H427.618V228.177H434.797V233.523H413.259Z" fill="#EAA4A4"/>
<path d="M358.193 233.523L377.364 182.504H385.383L404.478 233.523H396.84L392.868 222.372H369.803L365.831 233.523H358.193ZM371.941 216.186H390.73L381.335 189.76L371.941 216.186Z" fill="#EAA4A4"/>
<defs>
<clipPath id="clip0_204_7096">
<rect width="194.514" height="202.376" fill="white" transform="translate(100 100)"/>
</clipPath>
</defs>
</svg>
